<svg xmlns="http://www.w3.org/2000/svg" width="30" height="30"><path d="M15.775 3v2.85h2.73v18.3h-2.73V27h8.307v-2.85h-2.73v-3.61l2.568-.01c2.36-.014 2.457-.015 2.597-.106.21-.135.375-.352.438-.567.04-.138.052-1.432.04-4.955l-.012-4.767-.102-.188c-.11-.21-.28-.356-.52-.438-.113-.04-.84-.06-2.524-.06H21.36v-3.6h2.73V3h-8.31zm1.046 6.457l-6.6.012c-6.512.01-6.603.01-6.75.1-.21.134-.38.35-.44.56L3 19.86l.104.195c.106.2.262.33.506.426l13.21.06v-1.83H4.807v-7.42H16.82V9.46zm4.54 1.83h3.82v7.42h-3.82v-7.42zm-14.67 1.88v3.665H15v-3.664H6.69z" fill="#fff"/></svg>