<svg xmlns="http://www.w3.org/2000/svg" viewBox="0 0 30 30"><path fill="#fff" d="M8.904 6.383c.104-1.934-2.359-3.252-3.916-2.106-1.674.999-1.4 3.776.427 4.442 1.601.704 3.545-.577 3.489-2.336zM29.92 17.728c.02 1.537-1.445 2.349-2.339 3.386-2.757 2.745-5.48 5.525-8.258 8.249-1.12.957-2.876.611-3.726-.53-4.636-4.646-9.28-9.283-13.91-13.935C.385 13.434-.039 11.438.08 9.528.109 7.056.02 4.576.126 2.107.382.702 1.844-.106 3.192.08 5.904.1 8.62.038 11.33.112c1.895.207 3.498 1.328 4.734 2.714 4.428 4.44 8.892 8.846 13.299 13.306.364.447.564 1.02.558 1.596z"/></svg>