<svg xmlns="http://www.w3.org/2000/svg" viewBox="0 0 20 20"><path d="M4.238 1.385c-1.171 0-2.11.958-2.11 2.172v4.367c0 1.193.96 2.172 2.11 2.172h4.217v3.088c0 .575-.532 1.171-1.107 1.171H2.96C2.514 13.1 1.363 12.141 0 12.141v6.474c1.384 0 2.535-1.001 2.96-2.258h4.388c1.725 0 3.088-1.47 3.088-3.216v-3.024h6.177V1.385H4.238zm9.116 1.767c.745 0 1.341.597 1.341 1.342 0 .746-.596 1.342-1.341 1.342a1.336 1.336 0 0 1-1.342-1.342 1.35 1.35 0 0 1 1.342-1.342zm4.537.342v4.26h.81c.724 0 1.32-.598 1.299-1.322V4.814c0-.724-.575-1.32-1.299-1.32h-.81z"/></svg>