<svg xmlns="http://www.w3.org/2000/svg" viewBox="0 0 20 20"><path d="M6.16.008a.487.487 0 0 0-.373.084A12.426 12.426 0 0 0 .941 6.734c-.06.263.08.545.342.625a.35.35 0 0 0 .143.022.496.496 0 0 0 .484-.363A11.526 11.526 0 0 1 6.352.92a.511.511 0 0 0 .12-.707.466.466 0 0 0-.312-.205zm7.057 1.496c-.909 0-1.677.667-1.838 1.535a2.013 2.013 0 0 0-.848-.201 1.87 1.87 0 0 0-1.857 1.877v4.017a1.85 1.85 0 0 0-2.14-.544c-.95.383-1.414 1.494-1.03 2.443l2 4.826A5.856 5.856 0 0 0 13.238 20c3.23 0 5.875-2.644 5.834-5.875V7.42a1.87 1.87 0 0 0-1.857-1.877h-.14v-.14c0-1.03-.829-1.88-1.858-1.88h-.143v-.14c0-1.03-.827-1.88-1.857-1.88zm-6.004.16a.402.402 0 0 0-.295.063 10.624 10.624 0 0 0-4.12 5.654c-.06.222.06.443.262.504a.26.26 0 0 0 .122.021.39.39 0 0 0 .384-.283 9.84 9.84 0 0 1 3.795-5.25c.182-.121.243-.363.102-.545a.379.379 0 0 0-.25-.164zm.906 1.729a.3.3 0 0 0-.111.05 8.635 8.635 0 0 0-3.371 4.623c-.04.142.04.323.2.364.021.02.06.021.08.021.122 0 .244-.101.284-.222.505-1.737 1.635-3.271 3.129-4.301.141-.101.182-.283.102-.405a.307.307 0 0 0-.313-.13zm7.965 2.34v.033h-.03v-.002l.03-.032z"/></svg>
