<svg xmlns="http://www.w3.org/2000/svg" viewBox="0 0 700 700"><path d="M47.1 95.8c.5 2 1.3 5.7 1.9 8.2.5 2.5 3 13.5 5.5 24.5 4.7 20.6 11.2 49.3 12.5 55.5.4 1.9 2.7 11.8 5 22s4.6 20.1 5 22c.4 1.9 2.4 10.7 4.4 19.5 5.4 23.3 6.1 26.9 5.5 27.1-.2 0 .1.7.8 1.5.9 1.1-.5 5.2-6.8 19.4-4.4 9.9-8.9 20-10.1 22.5-1.1 2.5-3.5 7.9-5.3 12-4.1 9.5-18 40.9-21 47.5l-8 18c-3.1 7.1-6.7 15.2-8 18-9 20.1-16.6 37.7-16.3 38 .5.5 11.4 5.6 67.3 31.2 19.8 9.1 40.7 18.7 46.4 21.4 5.7 2.7 10.5 4.9 10.6 4.9.2 0 5.1 2.3 11 5s10.8 5 11 5c.2 0 6 2.7 13 6s12.8 6 13 6c.2 0 5.3 2.3 11.2 5.1 5.9 2.8 12.2 5.7 13.8 6.4 1.7.8 6.6 3 11 5 4.4 2.1 15.9 7.3 25.5 11.7 9.6 4.4 20.9 9.6 25 11.5 4.1 2 12.7 5.9 19 8.8 6.3 2.9 19.5 9.2 29.3 13.9 9.8 4.7 20.1 9.6 22.8 10.7 2.7 1.2 4.9 2.5 4.9 3 0 1.4 5.4.4 8-1.4 1.4-.9 2.7-1.7 3.1-1.7.3 0 9.1-4.1 19.5-9.1 21-10.2 37.4-17.9 37.9-17.9.2 0 6-2.7 13-6s12.8-6 13-6c.2 0 4.8-2.1 10.2-4.6 13.9-6.5 16.9-7.9 44.3-20.4 13.5-6.2 29.2-13.4 34.9-16.1 5.7-2.7 10.5-4.9 10.6-4.9.2 0 3.9-1.6 8.2-3.6 14.2-6.6 21.7-10.1 27.8-12.9 5.6-2.5 8.3-3.8 24.8-11.4 3.4-1.6 11.6-5.4 18.2-8.4s15.6-7.2 20-9.2c4.4-2 15-6.8 23.5-10.7 21.8-9.8 23.9-10.9 23.5-12.7-.2-.9-1.5-4-2.9-6.8-1.4-2.9-2.6-5.5-2.6-5.8 0-.4-9.8-22.7-14.9-34-1.1-2.2-4.4-9.9-7.6-17-6.3-14.3-8.5-19.4-11.4-25.8-1.1-2.3-4.7-10.5-8.1-18.2-3.4-7.7-7.5-16.8-9.1-20.3-1.6-3.4-2.9-6.4-2.9-6.7 0-.2-1.2-3-2.6-6.2-1.5-3.2-5.2-11.5-8.4-18.5l-5.6-12.8 2.3-9.2c1.3-5.1 2.6-10.7 2.9-12.3.2-1.7 1.3-6.6 2.4-11 1-4.4 3-13.2 4.4-19.5 1.5-6.3 3-13.1 3.6-15 .5-1.9 1.2-5.1 1.5-7 .3-1.9 1-5.1 1.6-7.1.5-2.1 1.3-5.7 1.8-8 1.6-8.2 9.2-41.2 9.5-41.8.2-.3.7-2.4 1.1-4.6.4-2.2.8-4.5.9-5 .1-.6 1-4.6 2-9s2.2-9.4 2.6-11c.5-1.7 1.2-4.2 1.5-5.8 1.1-6 1.7-8.4 2.9-14 .7-3.1 1-5.7.7-5.7-.4 0-4.7 1.4-9.6 3.1-12.2 4.3-76 26.1-119.4 40.9l-21.5 7.3-23-6.3c-28.1-7.6-53.4-14.6-60.1-16.6-6-1.7-41.4-11.4-43.5-11.9-.8-.2-4.9-1.4-9-2.6-13-3.7-22.8-3.1-45 3.1-26 7.3-65.2 18.1-67 18.5-.8.2-5.8 1.5-11 3-5.2 1.4-12 3.3-15 4.1-3 .8-6.9 1.9-8.6 2.5-1.7.5-4 1.1-5 1.3-1 .3-4.6 1.2-7.9 2.1-3.3.9-7 1.9-8.2 2.2-1.3.3-8.8-1.7-17.5-4.7-25.2-8.6-80.9-27.7-102.8-35.2-11.3-3.8-21.4-7.2-22.5-7.5-1.1-.3-2.4-.9-3-1.3-.5-.4-2.4-1-4.1-1.3l-3.2-.6.9 3.7z"/></svg>