<svg xmlns="http://www.w3.org/2000/svg" width="512" height="512"><g transform="translate(8.534 -521.178) scale(.96666)"><path d="M28.416 609.763l32.45 135.06L.656 880.608l253.333 116.45-.1 1.896 2.11-.97 2.11.97-.097-1.895 253.332-116.453-60.21-135.785 32.45-135.06-108.9 40.064-124.497-30.853-112.87 30.853z" fill="#fea" stroke="#000"/><path d="M26.686 608.968l31.558 139.52 119.592 62.704 48.998 97.998-4.152 73.5 31.382 15.137h3.87l31.384-15.137-4.152-73.5 48.998-97.998 119.592-62.703 31.558-139.523L371.12 648l-108.378-29.898h-13.484l-108.38 29.9z" fill="#f60" stroke="#000"/><circle r="14.534" cy="848.683" cx="152.811"/><circle r="14.534" cy="848.683" cx="359.189"/></g></svg>