<svg xmlns="http://www.w3.org/2000/svg" width="512" height="512"><path d="M35.437 67.794l31.45 130.893L8.532 330.283 254.05 443.14l-.096 1.838 2.045-.94 2.044.94-.094-1.836 245.517-112.86-58.353-131.597 31.45-130.893-105.54 38.828-120.658-29.9-109.388 29.9z" fill="#fea"/><path d="M33.76 67.023L64.345 202.24l115.902 60.77 47.487 94.974-4.024 71.232 30.414 14.67h3.75l30.416-14.67-4.024-71.232 47.487-94.975 115.902-60.77L478.24 67.022l-110.67 37.83-105.036-28.976h-13.068L144.43 104.853z" fill="#f60"/><circle cx="155.994" cy="299.343" r="14.086"/><circle cx="356.006" cy="299.343" r="14.086"/></svg>