<svg xmlns="http://www.w3.org/2000/svg" viewBox="0 0 20 20"><path d="M7.879 2.121C3.535 2.121 0 5.657 0 10s3.535 7.879 7.879 7.879a7.863 7.863 0 0 0 7.373-5.111.683.683 0 0 0 .102-.344.594.594 0 0 0-.606-.606.61.61 0 0 0-.547.344h-.02a6.668 6.668 0 0 1-6.302 4.504A6.672 6.672 0 0 1 1.213 10a6.672 6.672 0 0 1 6.666-6.666 6.66 6.66 0 0 1 6.303 4.525h.02a.609.609 0 0 0 .546.342c.343 0 .606-.261.606-.625a.627.627 0 0 0-.102-.344c-1.111-2.97-4-5.11-7.373-5.11zm0 2.445a5.455 5.455 0 0 0-5.455 5.454 5.455 5.455 0 0 0 5.455 5.455 5.455 5.455 0 0 0 5.262-4.041h5.404c.808 0 1.455-.627 1.455-1.414 0-.788-.647-1.415-1.455-1.415h-5.4a5.455 5.455 0 0 0-5.266-4.039z"/></svg>
