<svg xmlns="http://www.w3.org/2000/svg" width="30" height="30"><path d="M25.14 15.004c0-1.206.392-2.323.95-2.52l.896-.31c-.312-1.31-.828-2.542-1.516-3.654l-.85.41c-.533.255-1.6-.256-2.45-1.11-.854-.853-1.364-1.92-1.107-2.452l.41-.85c-1.114-.69-2.34-1.21-3.65-1.518l-.314.893c-.2.56-1.32.952-2.52.952s-2.32-.387-2.52-.947l-.31-.894c-1.31.312-2.53.85-3.64 1.54l.4.83c.25.537-.26 1.602-1.11 2.453-.85.85-1.92 1.366-2.45 1.108l-.83-.403c-.68 1.113-1.22 2.33-1.53 3.642l.89.312c.56.194.95 1.302.95 2.52 0 1.204-.387 2.313-.946 2.507L3 17.828c.313 1.307.83 2.54 1.517 3.65l.86-.41c.53-.254 1.6.26 2.45 1.11.85.85 1.366 1.92 1.11 2.454l-.41.85c1.115.69 2.34 1.208 3.65 1.518l.31-.897c.196-.56 1.314-.95 2.52-.95s2.32.392 2.513.95l.31.897c1.31-.312 2.54-.83 3.648-1.518l-.41-.855c-.25-.536.26-1.6 1.11-2.454.85-.852 1.92-1.367 2.45-1.11l.85.41c.69-1.112 1.21-2.34 1.52-3.65l-.898-.313c-.56-.194-.95-1.313-.95-2.52zm-10.147 6.51c-3.592 0-6.504-2.917-6.504-6.512 0-3.596 2.91-6.51 6.5-6.51s6.5 2.916 6.5 6.514c0 3.595-2.92 6.51-6.51 6.51z" fill="#fff"/></svg>