<svg xmlns="http://www.w3.org/2000/svg" viewBox="0 0 32 32" width="32" height="32"><path d="M28.632 16.083c0 1.537.498 2.826 1.205 3.158l1.121.416c-.415 1.62-.997 3.157-1.91 4.57l-.998-.498c-.707-.291-2.036.29-3.033 1.412-.998.998-1.746 2.327-1.413 3.034l.498.997c-1.412.83-2.95 1.537-4.57 1.828l-.416-1.122c-.207-.706-1.62-1.205-3.158-1.205-1.537 0-2.825.499-3.157 1.205L12.385 31c-1.62-.416-3.158-.997-4.57-1.911l.498-.998c.29-.706-.29-2.036-1.413-3.033-.997-.997-2.451-1.745-3.033-1.413l-.997.499c-.831-1.413-1.538-2.95-1.828-4.57l1.121-.416c.707-.208 1.205-1.62 1.205-3.158 0-1.537-.498-2.825-1.205-3.158l-1.121-.415c.415-1.62.997-3.158 1.91-4.571l.998.499c.707.29 2.036-.291 3.033-1.413.998-.997 1.746-2.327 1.413-3.033l-.498-.998c1.412-.83 2.95-1.537 4.57-1.911l.416 1.122c.207.706 1.62 1.205 3.158 1.205 1.537 0 2.825-.499 3.157-1.205L19.615 1c1.62.416 3.158.997 4.57 1.911l-.498.998c-.29.706.29 2.036 1.413 3.033.997.997 2.451 1.745 3.033 1.413l.997-.499c.831 1.413 1.538 2.95 1.828 4.57l-1.121.416c-.665.416-1.205 1.745-1.205 3.241zm-12.59-8.102c-4.488 0-8.144 3.656-8.144 8.144 0 4.487 3.656 8.144 8.144 8.144 4.487 0 8.144-3.698 8.144-8.186 0-4.446-3.657-8.102-8.144-8.102z" fill="#3fd4f2"/></svg>