<svg xmlns="http://www.w3.org/2000/svg" viewBox="0 0 32 32" width="32" height="32"><path d="M25.82 24.88H6.28c-.98 0-1.78-.798-1.78-1.779V12.386c0-.98.8-1.78 1.78-1.78h7.81l1.597-6.32a2.188 2.188 0 0 1-1.78-2.143C13.906.981 14.778 0 15.941 0c1.162 0 2.034.98 2.034 2.143 0 1.053-.727 1.961-1.671 2.143l1.598 6.32h7.81c.98 0 1.779.8 1.779 1.78v10.751c.109.945-.69 1.744-1.67 1.744zm-15.364-9.225c-1.344 0-2.397 1.053-2.397 2.47 0 1.344 1.053 2.47 2.397 2.47 1.344 0 2.397-1.054 2.397-2.47-.073-1.38-1.162-2.47-2.397-2.47zm11.805 0c-1.344 0-2.398 1.053-2.398 2.47 0 1.344 1.054 2.47 2.398 2.47s2.397-1.054 2.397-2.47c0-1.417-1.053-2.47-2.397-2.47zM16.049 26.66c3.197 0 5.776 2.324 6.393 5.339H9.584c.69-3.015 3.27-5.34 6.465-5.34z" fill="#3fd4f2"/></svg>