<svg xmlns="http://www.w3.org/2000/svg" width="30" height="30"><path d="M14.725 14.285c1.027-.86 2.162-1.902 3.327-3.065 3.57-3.57 6.023-6.913 5.47-7.463-.05-.052-.128-.077-.227-.077-.953 0-4 2.314-7.233 5.55-1.163 1.163-2.205 2.3-3.065 3.327.715.417 1.31 1.012 1.73 1.73zm11.848-.7c-.913-1.827-2.504-3.33-4.52-4.383-1.193 1.38-2.38 2.598-3.002 3.22-.95.95-1.92 1.866-2.86 2.69 0 .028.01.057.01.084 0 1.067-.41 2.072-1.17 2.825-1.37 1.38-3.36 1.67-4.78 1.67-.7 0-1.2-.07-1.25-.08l-1.04-.15-.15-1.04c-.06-.39-.52-3.93 1.58-6.03.72-.72 1.68-1.123 2.7-1.16.85-.97 1.8-1.98 2.79-2.97l.657-.64c-.12-.004-.24-.015-.356-.015-3.33 0-6.44 1.02-8.762 2.866-2.864 2.28-4.055 5.75-3.03 8.84 1.01 3.03 3.908 5.458 7.757 6.5 1.317.355 2.684.536 4.07.536 1.36 0 2.71-.176 4.005-.52 1.054-.28 4.55-1.343 5.282-3.3.185-.49.28-1.26-.303-2.13-.37-.55-.76-1.09-1.15-1.63-.29-.395-.576-.792-.85-1.19-.12-.167-.076-.297-.05-.345.04-.073.084-.105.244-.103.28.05.576.18.893.32.21.098.42.187.67.278.22.065.442.098.666.098.626 0 1.218-.242 1.668-.68.458-.44.71-1.025.726-1.652.02-.24.03-.92-.42-1.87zm-13.83-.33c-.233-.08-.48-.134-.742-.134-.62 0-1.19.26-1.6.67-1.46 1.47-1.04 4.26-1.04 4.26s.7.05 1.61.05c1.08 0 1.73-.15 2.65-1.08.42-.41.67-.98.67-1.61 0-.27-.05-.53-.14-.77-.35-.556-.82-1.02-1.383-1.36z" fill="#fff"/></svg>