<svg xmlns="http://www.w3.org/2000/svg" viewBox="0 0 512 512"><path fill="#0ca8a4" d="M0 0h512v512H0z"/><path d="M84.875 109.978l24.4 101.555L64 313.633l190.488 87.562-.075 1.426 1.587-.73 1.586.73-.073-1.425L448 313.633l-45.274-102.101 24.401-101.555-81.884 30.125-93.614-23.198-84.87 23.198z" fill="#fea"/><path d="M83.573 109.38l23.73 104.91 89.924 47.149 36.843 73.686-3.122 55.267 23.597 11.381h2.91l23.598-11.381-3.122-55.267 36.844-73.687 89.923-47.15 23.73-104.909-85.864 29.351-81.494-22.481h-10.139l-81.493 22.482z" fill="#f60"/><circle cx="178.41" cy="289.628" r="10.929"/><circle cx="333.592" cy="289.628" r="10.929"/></svg>